<!DOCTYPE svg PUBLIC "-//W3C//DTD SVG 20010904//EN" "http://www.w3.org/TR/2001/REC-SVG-20010904/DTD/svg10.dtd">
<svg version="1.0" xmlns="http://www.w3.org/2000/svg" width="345px" height="346px" viewBox="0 0 3450 3460" preserveAspectRatio="xMidYMid meet">
<g id="layer101" fill="#ffffff" stroke="none">
 <path d="M568 3245 c-42 -13 -97 -37 -122 -54 -24 -17 -48 -31 -52 -31 -3 0 -31 -26 -61 -57 -104 -109 -163 -258 -163 -407 l0 -66 450 0 450 0 0 320 0 320 -212 -1 c-192 -1 -221 -3 -290 -24z"/>
 <path d="M1260 1720 l0 -1550 750 0 c845 0 843 0 972 70 81 44 166 126 213 205 40 67 74 187 75 258 l0 57 -410 0 c-347 0 -416 2 -447 15 -48 20 -71 41 -94 87 -18 36 -19 79 -19 1223 l0 1185 -520 0 -520 0 0 -1550z"/>
 <path d="M2490 2950 l0 -320 392 0 391 0 -6 113 c-6 107 -8 116 -52 204 -59 119 -139 202 -253 261 -95 50 -161 62 -344 62 l-128 0 0 -320z"/>
 <path d="M170 2100 l0 -340 450 0 450 0 0 340 0 340 -450 0 -450 0 0 -340z"/>
 <path d="M2490 2100 l0 -340 390 0 390 0 0 340 0 340 -390 0 -390 0 0 -340z"/>
 <path d="M170 1260 l0 -310 450 0 450 0 0 310 0 310 -450 0 -450 0 0 -310z"/>
 <path d="M2490 1260 l0 -310 390 0 390 0 0 310 0 310 -390 0 -390 0 0 -310z"/>
 <path d="M174 690 c16 -157 63 -258 173 -364 28 -28 76 -66 105 -84 93 -55 139 -64 391 -69 l227 -5 0 296 0 296 -451 0 -452 0 7 -70z"/>
 </g>

</svg>