<svg height="512" viewBox="-18 -18 100 100" width="512"
     xmlns="http://www.w3.org/2000/svg" xmlns:xlink="http://www.w3.org/1999/xlink"><linearGradient id="New_Gradient_Swatch_3"  x1="14" x2="14" y1="67.724" y2="4.143"><stop offset="0" stop-color="#fff"/><stop offset="1" stop-color="#fff"/></linearGradient><linearGradient id="New_Gradient_Swatch_3-2" x1="37" x2="37" xlink:href="#New_Gradient_Swatch_3" y1="67.724" y2="4.143"/><linearGradient id="New_Gradient_Swatch_3-3" x1="41" x2="41" xlink:href="#New_Gradient_Swatch_3" y1="67.724" y2="4.143"/><linearGradient id="New_Gradient_Swatch_3-4" x1="45" x2="45" xlink:href="#New_Gradient_Swatch_3" y1="67.724" y2="4.143"/><linearGradient id="New_Gradient_Swatch_3-5" x1="16" x2="16" xlink:href="#New_Gradient_Swatch_3" y1="67.724" y2="4.143"/><linearGradient id="New_Gradient_Swatch_3-6" x1="28" x2="28" xlink:href="#New_Gradient_Swatch_3" y1="67.724" y2="4.143"/><linearGradient id="New_Gradient_Swatch_3-7" x1="36" x2="36" xlink:href="#New_Gradient_Swatch_3" y1="67.724" y2="4.143"/><linearGradient id="New_Gradient_Swatch_3-8" x1="44" x2="44" xlink:href="#New_Gradient_Swatch_3" y1="67.724" y2="4.143"/><linearGradient id="New_Gradient_Swatch_3-9" x1="52" x2="52" xlink:href="#New_Gradient_Swatch_3" y1="67.724" y2="4.143"/><linearGradient id="New_Gradient_Swatch_3-10" x1="32" x2="32" xlink:href="#New_Gradient_Swatch_3" y1="67.724" y2="4.143"/><linearGradient id="New_Gradient_Swatch_3-11" x1="51" x2="51" xlink:href="#New_Gradient_Swatch_3" y1="67.724" y2="4.143"/><linearGradient id="New_Gradient_Swatch_3-12" x1="49" x2="49" xlink:href="#New_Gradient_Swatch_3" y1="67.724" y2="4.143"/><linearGradient id="New_Gradient_Swatch_3-13" x1="53" x2="53" xlink:href="#New_Gradient_Swatch_3" y1="67.724" y2="4.143"/><linearGradient id="New_Gradient_Swatch_3-14" x1="34" x2="34" xlink:href="#New_Gradient_Swatch_3" y1="67.724" y2="4.143"/><linearGradient id="New_Gradient_Swatch_3-15" x1="33" x2="33" xlink:href="#New_Gradient_Swatch_3" y1="67.724" y2="4.143"/><g id="Add_credit_card"><path d="m11 28h6a3 3 0 0 0 3-3v-4a3 3 0 0 0 -3-3h-6a3 3 0 0 0 -3 3v4a3 3 0 0 0 3 3zm6-2h-1v-2h2v1a1 1 0 0 1 -1 1zm1-5v1h-2v-2h1a1 1 0 0 1 1 1zm-8 0a1 1 0 0 1 1-1h3v6h-3a1 1 0 0 1 -1-1z" fill="url(#New_Gradient_Swatch_3)"/><path d="m36 20h2v4h-2z" fill="url(#New_Gradient_Swatch_3-2)"/><path d="m40 20h2v4h-2z" fill="url(#New_Gradient_Swatch_3-3)"/><path d="m44 20h2v4h-2z" fill="url(#New_Gradient_Swatch_3-4)"/><path d="m19 36a4.988 4.988 0 0 0 -3.011 1.016 4.955 4.955 0 0 0 -2.989-1.016 5 5 0 0 0 0 10 4.955 4.955 0 0 0 2.989-1.016 5 5 0 1 0 3.011-8.984zm-6 8a3 3 0 1 1 3-3 3 3 0 0 1 -3 3zm6 0a2.98 2.98 0 0 1 -1.68-.53 4.826 4.826 0 0 0 0-4.94 2.995 2.995 0 1 1 1.68 5.47z" fill="url(#New_Gradient_Swatch_3-5)"/><path d="m26 30h4v2h-4z" fill="url(#New_Gradient_Swatch_3-6)"/><path d="m34 30h4v2h-4z" fill="url(#New_Gradient_Swatch_3-7)"/><path d="m42 30h4v2h-4z" fill="url(#New_Gradient_Swatch_3-8)"/><path d="m50 30h4v2h-4z" fill="url(#New_Gradient_Swatch_3-9)"/><path d="m60 44.7v-27.7a5.006 5.006 0 0 0 -5-5h-48a5.006 5.006 0 0 0 -5 5v30a5.006 5.006 0 0 0 5 5h33.051a11 11 0 1 0 19.949-7.3zm-56 2.3v-30a3 3 0 0 1 3-3h48a3 3 0 0 1 3 3v25.521a10.99 10.99 0 0 0 -17.949 7.479h-33.051a3 3 0 0 1 -3-3zm47 13a9 9 0 1 1 9-9 9.011 9.011 0 0 1 -9 9z" fill="url(#New_Gradient_Swatch_3-10)"/><path d="m55 50h-3v-3a1 1 0 0 0 -2 0v3h-3a1 1 0 0 0 0 2h3v3a1 1 0 0 0 2 0v-3h3a1 1 0 0 0 0-2z" fill="url(#New_Gradient_Swatch_3-11)"/><path d="m48 20h2v4h-2z" fill="url(#New_Gradient_Swatch_3-12)"/><path d="m52 20h2v4h-2z" fill="url(#New_Gradient_Swatch_3-13)"/><path d="m39 38h-10a1 1 0 0 0 -1 1v4a1 1 0 0 0 1 1h10a1 1 0 0 0 1-1v-4a1 1 0 0 0 -1-1zm-1 4h-8v-2h8z" fill="url(#New_Gradient_Swatch_3-14)"/><path d="m32 20h2v4h-2z" fill="url(#New_Gradient_Swatch_3-15)"/></g></svg>
