<!DOCTYPE svg PUBLIC "-//W3C//DTD SVG 20010904//EN" "http://www.w3.org/TR/2001/REC-SVG-20010904/DTD/svg10.dtd">
<svg version="1.0" xmlns="http://www.w3.org/2000/svg" width="230px" height="143px" viewBox="0 0 2300 1430" preserveAspectRatio="xMidYMid meet">
<g id="layer101" fill="#ffffff" stroke="none">
 <path d="M644 1410 c-50 -20 -66 -77 -39 -130 17 -33 32 -39 103 -38 l52 0 0 84 0 84 -27 0 c-16 0 -37 2 -48 5 -11 2 -30 0 -41 -5z m64 -76 c4 -25 -20 -47 -42 -38 -16 6 -22 45 -9 58 14 14 48 1 51 -20z"/>
 <path d="M813 1413 c-33 -7 -45 -26 -30 -48 11 -14 17 -15 35 -6 26 14 42 14 42 1 0 -5 -9 -10 -21 -10 -37 0 -59 -19 -59 -50 0 -42 37 -64 95 -57 54 8 75 1 75 -24 0 -14 7 -19 30 -19 23 0 30 5 30 19 0 13 8 21 23 23 14 2 23 11 25 26 3 18 -1 22 -22 22 -23 0 -26 4 -26 35 0 31 3 35 25 35 35 0 36 45 1 54 -56 14 -86 -21 -86 -99 0 -14 -7 -25 -20 -28 -11 -3 -20 -1 -20 4 0 5 -8 9 -17 10 -14 0 -13 3 5 11 25 13 31 68 9 87 -17 13 -64 21 -94 14z"/>
 <path d="M1115 1410 c-31 -12 -45 -34 -47 -71 -2 -50 9 -74 38 -87 49 -23 88 -13 109 29 20 38 19 69 -2 69 -13 0 -14 3 -5 12 20 20 14 35 -19 47 -37 13 -46 13 -74 1z m55 -50 c12 -8 9 -10 -13 -10 -16 0 -26 4 -22 10 8 12 16 12 35 0z m-5 -60 c-3 -5 -12 -10 -20 -10 -8 0 -17 5 -20 10 -4 6 5 10 20 10 15 0 24 -4 20 -10z"/>
 <path d="M1394 1410 c-76 -31 -67 -151 11 -166 53 -10 87 2 83 29 -2 17 -10 22 -33 23 -55 2 -56 3 -53 32 3 24 7 27 40 26 29 -1 39 3 44 18 3 11 2 24 -3 29 -14 14 -66 19 -89 9z"/>
 <path d="M1534 1406 c-35 -16 -44 -32 -44 -82 0 -24 8 -43 25 -60 21 -21 32 -24 82 -22 l58 3 3 83 3 82 -28 0 c-15 0 -37 2 -48 5 -11 3 -34 -1 -51 -9z m72 -68 c9 -29 -20 -57 -44 -42 -23 15 -26 38 -7 57 19 19 42 12 51 -15z"/>
 <path d="M1830 1407 c-32 -16 -52 -55 -46 -89 4 -22 2 -28 -12 -28 -30 0 -42 21 -42 72 0 45 -2 48 -25 48 -26 0 -26 0 -23 -82 l3 -83 53 -3 c48 -3 52 -1 52 20 0 13 3 18 8 12 11 -18 48 -34 76 -34 21 0 26 -5 26 -25 0 -20 5 -25 25 -25 l25 0 0 110 0 110 -27 0 c-16 0 -37 3 -48 5 -11 3 -31 -1 -45 -8z m68 -73 c4 -29 -23 -51 -43 -34 -16 13 -20 42 -8 54 14 14 48 1 51 -20z"/>
 <path d="M1974 1405 c-8 -20 4 -35 27 -35 14 0 19 7 19 25 0 18 -5 25 -20 25 -11 0 -23 -7 -26 -15z"/>
 <path d="M332 1328 l3 -83 54 -2 c30 -2 60 2 67 8 8 7 14 7 19 -1 10 -17 70 -12 88 8 12 13 17 37 17 85 0 65 -1 67 -25 67 -24 0 -25 -3 -25 -54 0 -31 -5 -58 -12 -62 -18 -11 -38 26 -38 73 0 39 -2 43 -25 43 -24 0 -25 -3 -25 -54 0 -31 -5 -58 -12 -62 -18 -11 -38 26 -38 73 0 39 -2 43 -25 43 -26 0 -26 0 -23 -82z"/>
 <path d="M1240 1325 l0 -85 56 0 c52 0 55 1 52 22 -2 13 -11 24 -23 27 -28 5 -35 19 -35 74 0 43 -2 47 -25 47 -25 0 -25 -1 -25 -85z"/>
 <path d="M663 1116 c-199 -49 -365 -221 -408 -423 -50 -236 41 -469 233 -596 166 -111 377 -127 558 -41 31 14 58 32 61 40 3 8 -19 40 -51 75 -212 229 -205 590 15 810 23 23 38 47 35 54 -8 21 -97 63 -168 80 -76 18 -203 18 -275 1z"/>
 <path d="M1338 1114 c-67 -16 -157 -59 -164 -79 -3 -7 12 -31 35 -54 102 -102 162 -239 169 -386 7 -161 -46 -307 -154 -424 -32 -35 -54 -67 -51 -75 3 -8 30 -26 61 -40 181 -86 392 -70 558 41 235 155 314 469 186 731 -48 97 -151 199 -248 245 -41 19 -99 40 -128 46 -71 15 -194 13 -264 -5z"/>
 <path d="M1067 950 c-160 -177 -192 -439 -81 -651 39 -74 129 -179 154 -179 25 0 115 105 154 179 85 163 87 360 4 528 -35 72 -131 183 -158 183 -10 0 -43 -27 -73 -60z"/>
 <path d="M1960 900 c0 -16 7 -20 30 -20 23 0 30 4 30 20 0 16 -7 20 -30 20 -23 0 -30 -4 -30 -20z"/>
 </g>

</svg>