<svg width="510" height="157" xmlns="http://www.w3.org/2000/svg">

 <g>
  <title>background</title>
  <rect fill="none" id="canvas_background" height="159" width="512" y="-1" x="-1"/>
 </g>
 <g>
  <title>Layer 1</title>
  <g id="svg_1">
   <polygon id="svg_2" fill="#FFFFFF" points="187.8000030517578,151.39999389648438 213.39999389648438,7.399993896484375 253.39999389648438,7.399993896484375 228.60000610351562,151.39999389648438 "/>
   <polygon id="svg_3" fill="#FFFFFF" points="187.8000030517578,151.39999389648438 220.60000610351562,7.399993896484375 253.39999389648438,7.399993896484375 228.60000610351562,151.39999389648438 "/>
   <path id="svg_4" fill="#FFFFFF" d="m373.4,9c-8,-3.2 -20.8,-6.4 -36.8,-6.4c-40,0 -68.8,20 -68.8,48.8c0,21.6 20,32.8 36,40s20.8,12 20.8,18.4c0,9.6 -12.8,14.4 -24,14.4c-16,0 -24.8,-2.4 -38.4,-8l-5.6,-2.4l-5.6,32.8c9.6,4 27.2,8 45.6,8c42.4,0 70.4,-20 70.4,-50.4c0,-16.8 -10.4,-29.6 -34.4,-40c-14.4,-7.2 -23.2,-11.2 -23.2,-18.4c0,-6.4 7.2,-12.8 23.2,-12.8c13.6,0 23.2,2.4 30.4,5.6l4,1.6l6.4,-31.2l0,0z"/>
   <path id="svg_5" fill="#FFFFFF" d="m373.4,9c-8,-3.2 -20.8,-6.4 -36.8,-6.4c-40,0 -61.6,20 -61.6,48.8c0,21.6 12.8,32.8 28.8,40s20.8,12 20.8,18.4c0,9.6 -12.8,14.4 -24,14.4c-16,0 -24.8,-2.4 -38.4,-8l-5.6,-2.4l-5.6,32.8c9.6,4 27.2,8 45.6,8c42.4,0 70.4,-20 70.4,-50.4c0,-16.8 -10.4,-29.6 -34.4,-40c-14.4,-7.2 -23.2,-11.2 -23.2,-18.4c0,-6.4 7.2,-12.8 23.2,-12.8c13.6,0 23.2,2.4 30.4,5.6l4,1.6l6.4,-31.2l0,0z"/>
   <path id="svg_6" fill="#FFFFFF" d="m442.2,7.4c-9.6,0 -16.8,0.8 -20.8,10.4l-60,133.6l43.2,0l8,-24l51.2,0l4.8,24l38.4,0l-33.6,-144l-31.2,0zm-18.4,96c2.4,-7.2 16,-42.4 16,-42.4s3.2,-8.8 5.6,-14.4l2.4,13.6c0,0 8,36 9.6,44l-33.6,0l0,-0.8z"/>
   <path id="svg_7" fill="#FFFFFF" d="m451.8,7.4c-9.6,0 -16.8,0.8 -20.8,10.4l-69.6,133.6l43.2,0l8,-24l51.2,0l4.8,24l38.4,0l-33.6,-144l-21.6,0zm-28,96c3.2,-8 16,-42.4 16,-42.4s3.2,-8.8 5.6,-14.4l2.4,13.6c0,0 8,36 9.6,44l-33.6,0l0,-0.8z"/>
   <path id="svg_8" fill="#FFFFFF" d="m114.2,108.2l-4,-20.8c-7.2,-24 -30.4,-50.4 -56,-63.2l36,128l43.2,0l64.8,-144l-43.2,0l-40.8,100z"/>
   <path id="svg_9" fill="#FFFFFF" d="m114.2,108.2l-4,-20.8c-7.2,-24 -30.4,-50.4 -56,-63.2l36,128l43.2,0l64.8,-144l-35.2,0l-48.8,100z"/>
   <path id="svg_10" fill="#FFFFFF" d="m3,7.4l7.2,1.6c51.2,12 86.4,42.4 100,78.4l-14.4,-68c-2.4,-9.6 -9.6,-12 -18.4,-12l-74.4,0z"/>
   <path id="svg_11" fill="#FFFFFF" d="m3,7.4l0,0c51.2,12 93.6,43.2 107.2,79.2l-13.6,-56.8c-2.4,-9.6 -10.4,-15.2 -19.2,-15.2l-74.4,-7.2z"/>
   <path id="svg_12" fill="#FFFFFF" class="active-path" d="m3,7.4l0,0c51.2,12 93.6,43.2 107.2,79.2l-9.6,-31.2c-2.4,-9.6 -5.6,-19.2 -16.8,-23.2l-80.8,-24.8z"/>
   <g id="svg_13">
    <path id="svg_14" fill="#FFFFFF" d="m154.2,103.4l-27.2,-27.2l-12.8,30.4l-3.2,-20c-7.2,-24 -30.4,-50.4 -56,-63.2l36,128l43.2,0l20,-48z"/>
    <polygon id="svg_15" fill="#FFFFFF" points="228.60000610351562,151.39999389648438 194.1999969482422,116.20001220703125 187.8000030517578,151.39999389648438 "/>
    <path id="svg_16" fill="#FFFFFF" d="m320.6,101.8l0,0c3.2,3.2 4.8,5.6 4,8.8c0,9.6 -12.8,14.4 -24,14.4c-16,0 -24.8,-2.4 -38.4,-8l-5.6,-2.4l-5.6,32.8c9.6,4 27.2,8 45.6,8c25.6,0 46.4,-7.2 58.4,-20l-34.4,-33.6z"/>
    <path id="svg_17" fill="#FFFFFF" d="m367,151.4l37.6,0l8,-24l51.2,0l4.8,24l38.4,0l-13.6,-58.4l-48,-46.4l2.4,12.8c0,0 8,36 9.6,44l-33.6,0c3.2,-8 16,-42.4 16,-42.4s3.2,-8.8 5.6,-14.4"/>
   </g>
  </g>
 </g>
</svg>